<?xml version="1.0" standalone="no"?>
<!DOCTYPE svg PUBLIC "-//W3C//DTD SVG 20010904//EN"
 "http://www.w3.org/TR/2001/REC-SVG-20010904/DTD/svg10.dtd">
<svg version="1.0" xmlns="http://www.w3.org/2000/svg"
 width="2048.000000pt" height="2048.000000pt" viewBox="0 0 2048.000000 2048.000000"
 preserveAspectRatio="xMidYMid meet">

<g transform="translate(0.000000,2048.000000) scale(0.100000,-0.100000)"
fill="#000000" stroke="none">
<path d="M0 10240 l0 -10240 10240 0 10240 0 0 10240 0 10240 -10240 0 -10240
0 0 -10240z m12780 4379 c370 -9 445 -18 614 -73 102 -34 281 -121 376 -183
274 -180 577 -492 730 -753 41 -69 99 -152 130 -185 30 -34 82 -95 115 -135
32 -41 96 -115 140 -165 93 -103 262 -300 283 -330 23 -32 -293 292 -361 370
-51 59 -59 65 -53 40 23 -96 26 -498 23 -3075 l-3 -2755 -26 -115 c-140 -620
-562 -1116 -1148 -1351 -230 -92 -114 -83 -1160 -85 -509 0 -887 2 -840 6 59
4 10 7 -157 8 -166 1 -243 5 -243 13 0 6 12 10 28 9 41 -3 52 -1 52 10 0 6
-18 10 -41 10 -28 0 -39 4 -36 13 2 6 18 12 34 12 17 0 35 3 39 8 4 4 -29 7
-74 7 -81 0 -82 0 -82 25 0 23 -4 25 -40 25 -29 0 -40 4 -40 15 0 11 -11 15
-40 15 l-40 0 0 40 0 40 -120 0 -120 0 0 40 0 40 -40 0 -40 0 0 40 0 40 -40 0
-40 0 0 55 0 55 -40 0 c-36 0 -40 3 -40 25 0 23 -4 25 -40 25 l-40 0 0 40 0
40 -80 0 -80 0 0 40 0 40 -40 0 -40 0 0 40 0 40 -40 0 -40 0 0 40 0 40 -40 0
c-36 0 -40 3 -40 25 0 23 -4 25 -40 25 l-40 0 0 55 0 55 -40 0 -40 0 0 40 0
40 -80 0 -80 0 0 40 c0 29 -4 40 -15 40 -8 0 -15 5 -15 10 0 7 6 7 18 1 12 -6
23 -5 37 5 10 8 27 14 37 14 11 0 18 7 18 19 0 23 -19 38 -29 23 -3 -5 -15
-12 -26 -14 -16 -2 -20 3 -20 24 -1 35 -7 40 -25 20 -13 -14 -12 -15 3 -9 9 3
17 2 17 -4 0 -6 -12 -9 -27 -7 -16 2 -28 -2 -28 -8 0 -6 -8 -18 -17 -28 -9 -9
-15 -23 -12 -30 4 -11 -5 -14 -38 -13 -34 1 -54 -7 -96 -35 -28 -19 -49 -38
-44 -43 4 -4 -3 -5 -14 -1 -17 5 -22 3 -20 -11 1 -12 -6 -18 -20 -18 -24 0
-295 -134 -306 -151 -4 -6 -18 -9 -31 -7 -12 2 -47 -5 -77 -17 -131 -52 -324
-103 -475 -126 -210 -32 -705 -28 -885 7 -132 26 -224 49 -229 57 -3 6 -15 12
-26 15 -58 14 69 4 186 -15 119 -19 173 -22 489 -22 323 -1 366 1 481 21 202
36 490 117 616 174 210 95 373 191 547 323 237 180 375 313 1804 1743 579 579
1056 1053 1060 1053 19 0 366 -391 469 -528 123 -164 247 -383 286 -508 59
-189 60 -418 3 -569 -4 -11 -13 -33 -19 -50 -22 -58 -82 -141 -171 -234 -50
-52 -240 -246 -423 -431 -413 -418 -592 -603 -593 -612 0 -16 239 -20 969 -15
656 3 785 6 792 18 57 84 124 300 150 484 17 113 16 539 0 650 -63 416 -211
806 -434 1142 -190 285 -184 279 -1772 1869 -867 868 -1128 1125 -1157 1135
-21 7 -38 17 -38 22 0 15 188 189 365 338 333 282 633 447 890 490 90 15 232
6 315 -21 144 -48 331 -175 454 -311 86 -95 747 -758 851 -852 83 -77 100 -88
104 -72 8 41 -8 973 -18 1050 -19 146 -33 199 -67 250 -62 95 -460 472 -544
515 -44 23 -52 24 -300 23 -409 -1 -614 -38 -990 -182 -79 -30 -272 -130 -360
-186 -120 -77 -247 -174 -365 -280 -115 -104 -925 -906 -1955 -1935 -333 -333
-634 -631 -668 -664 l-62 -59 -51 54 c-566 597 -772 943 -773 1304 0 132 10
177 69 295 28 56 97 151 145 202 8 9 255 257 548 551 292 295 532 538 532 541
0 3 -396 6 -879 6 l-880 0 -34 -72 c-56 -118 -65 -141 -77 -190 -14 -53 -24
-62 -26 -23 -1 14 2 22 7 19 5 -3 9 13 9 35 0 23 5 41 10 41 6 0 10 11 10 24
0 20 -4 23 -22 20 -18 -3 -17 -1 5 8 15 7 27 18 27 25 0 17 -36 17 -44 1 -3
-7 -3 0 0 17 7 37 10 41 26 27 10 -8 20 -5 38 9 l25 20 -29 -7 c-21 -5 -27 -4
-22 5 4 6 1 11 -9 11 -9 0 -13 5 -10 10 4 6 10 8 15 5 5 -3 11 -2 14 3 6 11
46 9 -401 18 -440 8 -398 -5 -362 118 104 348 574 780 1088 1001 101 43 184
66 276 75 99 11 4906 10 5325 -1z m-5987 -1226 c-7 -2 -19 -2 -25 0 -7 3 -2 5
12 5 14 0 19 -2 13 -5z m7 -346 c-7 -17 -16 -52 -21 -77 -7 -42 -7 -42 -5 15
2 33 9 73 17 89 17 37 24 15 9 -27z m-49 -253 c-5 -35 -9 -46 -10 -28 -1 34 9
97 15 91 2 -2 0 -30 -5 -63z m-14 -146 c-3 -7 -5 -2 -5 12 0 14 2 19 5 13 2
-7 2 -19 0 -25z m12 -285 c0 -45 -3 -85 -9 -88 -7 -4 -9 49 -8 152 1 129 2
145 8 88 4 -38 8 -107 9 -152z m32 -248 c78 -422 296 -850 661 -1296 91 -112
362 -406 426 -462 17 -16 32 -35 32 -43 0 -8 6 -14 13 -14 7 0 26 -14 43 -32
16 -18 20 -26 9 -18 -11 8 -24 21 -28 28 -4 6 -13 12 -19 12 -6 0 -80 70 -166
155 -86 85 -154 155 -151 155 2 0 -42 47 -98 105 -57 58 -103 110 -103 117 0
6 -8 18 -18 27 -10 9 -26 30 -36 46 -10 17 -27 39 -37 50 -45 48 -189 254
-189 271 0 4 -16 28 -35 55 -19 27 -45 70 -57 96 -12 27 -25 50 -28 53 -12 9
-68 130 -75 160 -4 17 -11 30 -16 30 -5 0 -9 8 -9 18 0 10 -3 22 -7 26 -14 14
-78 213 -90 281 -3 17 -10 38 -15 49 -13 25 -45 245 -39 271 4 17 5 17 8 -5 2
-14 13 -74 24 -135z m1255 -1927 l29 -33 -32 29 c-31 28 -38 36 -30 36 2 0 16
-15 33 -32z m80 -80 l29 -33 -32 29 c-31 28 -38 36 -30 36 2 0 16 -15 33 -32z
m73 -82 c-3 -3 -11 5 -18 17 -13 21 -12 21 5 5 10 -10 16 -20 13 -22z m91 -81
c13 -14 21 -25 18 -25 -2 0 -15 11 -28 25 -13 14 -21 25 -18 25 2 0 15 -11 28
-25z m85 -92 l18 -28 -21 19 c-12 11 -22 23 -22 28 0 14 7 9 25 -19z m246
-240 c13 -16 12 -17 -3 -4 -10 7 -18 15 -18 17 0 8 8 3 21 -13z m1237 -1258
c-3 -3 -9 2 -12 12 -6 14 -5 15 5 6 7 -7 10 -15 7 -18z m-308 -1337 c0 -9 4
-8 10 2 7 11 10 6 10 -22 0 -31 -3 -37 -20 -35 -22 1 -28 17 -7 17 7 0 8 3 2
8 -5 4 -16 15 -24 25 -12 15 -11 17 8 17 11 0 21 -6 21 -12z m-40 -16 c0 -10
-44 -32 -63 -32 -9 0 21 20 61 39 1 0 2 -3 2 -7z m7 -38 c-3 -3 -12 -4 -19 -1
-8 3 -5 6 6 6 11 1 17 -2 13 -5z m-172 -64 c-10 -11 -21 -17 -24 -14 -3 3 3
12 13 20 28 20 32 17 11 -6z m1545 -915 c0 -11 -11 -15 -40 -15 -29 0 -40 4
-40 15 0 11 11 15 40 15 29 0 40 -4 40 -15z m463 -162 c-13 -2 -33 -2 -45 0
-13 2 -3 4 22 4 25 0 35 -2 23 -4z m-10641 -5110 c24 -29 78 -171 75 -195 -3
-16 -12 -24 -31 -26 -23 -3 -29 3 -50 50 -13 29 -26 61 -29 71 -4 9 -12 17
-18 17 -7 0 -10 -3 -6 -6 3 -4 -1 -20 -9 -36 -9 -17 -11 -27 -5 -24 6 4 11 2
11 -3 0 -6 3 -10 8 -10 21 4 32 -3 32 -20 0 -30 -25 -42 -76 -39 -68 4 -74 20
-39 107 43 107 60 131 93 131 16 0 36 -8 44 -17z m618 -87 c0 -111 -2 -116
-55 -116 -37 0 -55 10 -70 40 -25 47 3 103 56 115 24 5 29 12 29 36 0 22 5 29
20 29 19 0 20 -7 20 -104z m230 72 c0 -30 3 -33 32 -34 37 -2 68 -34 68 -71 0
-14 -13 -37 -30 -54 -24 -25 -37 -30 -67 -27 l-38 3 -3 108 c-3 102 -2 107 18
107 16 0 20 -6 20 -32z m868 9 c2 -10 -3 -17 -12 -17 -9 0 -16 -7 -16 -15 0
-8 7 -15 15 -15 8 0 15 -7 15 -15 0 -8 -7 -15 -15 -15 -10 0 -15 -15 -17 -57
-3 -50 -6 -58 -23 -58 -17 0 -20 8 -23 58 -2 31 -7 57 -12 57 -6 0 -10 7 -10
15 0 8 4 15 10 15 5 0 12 11 16 25 11 43 65 60 72 22z m57 11 c2 -7 5 -57 8
-110 4 -86 2 -98 -12 -98 -34 0 -41 22 -41 122 0 92 1 98 20 98 11 0 22 -6 25
-12z m-415 -18 c0 -13 -7 -20 -20 -20 -13 0 -20 7 -20 20 0 13 7 20 20 20 13
0 20 -7 20 -20z m-911 -80 c37 -105 37 -110 11 -110 -13 0 -22 9 -26 25 -5 21
-12 25 -40 25 -28 0 -36 -5 -44 -25 -9 -23 -29 -33 -42 -19 -4 3 8 48 25 100
30 86 34 94 58 94 24 0 29 -7 58 -90z m854 70 c5 -18 0 -20 -39 -20 -37 0 -44
-3 -44 -20 0 -17 7 -20 40 -20 33 0 40 -3 40 -20 0 -17 -7 -20 -40 -20 l-40 0
0 -40 c0 -33 -3 -40 -20 -40 -19 0 -20 7 -20 100 l0 100 59 0 c50 0 59 -3 64
-20z m-530 -52 c38 -45 1 -128 -58 -128 -32 0 -75 42 -74 72 2 78 84 113 132
56z m296 15 c11 -10 22 -29 23 -43 3 -23 -1 -25 -40 -28 -51 -4 -53 -25 -3
-30 43 -4 39 -36 -5 -40 -63 -6 -105 61 -73 119 19 37 67 47 98 22z m411 -7
c0 -18 -6 -25 -22 -28 -20 -3 -23 -10 -26 -55 -3 -45 -6 -53 -23 -53 -17 0
-19 7 -19 76 0 75 0 76 24 72 14 -3 31 -1 38 3 21 14 28 10 28 -15z m103 13
c28 -15 37 -28 37 -56 0 -21 -5 -23 -46 -23 -56 0 -57 -23 -1 -28 44 -4 50
-28 11 -38 -65 -16 -115 37 -94 100 6 18 21 38 33 44 29 14 34 14 60 1z m-223
-74 c0 -68 -2 -75 -20 -75 -18 0 -20 7 -20 75 0 68 2 75 20 75 18 0 20 -7 20
-75z m491 35 c14 -46 24 -44 33 5 6 29 11 35 33 35 20 0 24 -4 18 -17 -4 -10
-21 -55 -38 -100 -25 -66 -35 -82 -55 -86 -20 -4 -23 -2 -16 17 13 38 8 80
-14 134 l-22 52 25 0 c20 0 26 -7 36 -40z"/>
<path d="M13218 13693 c12 -2 32 -2 45 0 12 2 2 4 -23 4 -25 0 -35 -2 -22 -4z"/>
<path d="M6888 13413 c6 -2 18 -2 25 0 6 3 1 5 -13 5 -14 0 -19 -2 -12 -5z"/>
<path d="M9830 7290 c-8 -5 -11 -12 -8 -16 4 -3 14 1 23 10 18 17 9 21 -15 6z"/>
<path d="M9880 7251 c0 -18 18 -21 30 -6 10 13 9 15 -9 15 -11 0 -21 -4 -21
-9z"/>
<path d="M9731 7205 c-17 -19 -27 -35 -22 -35 6 0 16 7 23 15 7 9 22 25 32 35
11 11 15 20 9 20 -5 0 -24 -16 -42 -35z"/>
<path d="M9600 7112 c0 -6 -17 -23 -37 -37 -24 -16 -31 -25 -20 -25 9 0 17 5
17 11 0 5 4 8 9 5 10 -7 45 43 37 52 -3 3 -6 0 -6 -6z"/>
<path d="M11778 5833 c12 -2 32 -2 45 0 12 2 2 4 -23 4 -25 0 -35 -2 -22 -4z"/>
<path d="M1242 618 c-15 -15 -15 -41 0 -56 24 -24 38 -13 38 28 0 41 -14 52
-38 28z"/>
<path d="M1550 589 c0 -36 2 -40 23 -37 42 6 33 77 -10 78 -8 0 -13 -15 -13
-41z"/>
<path d="M1080 641 c0 -5 -3 -16 -6 -25 -4 -12 0 -16 16 -16 16 0 20 4 16 16
-3 9 -6 20 -6 25 0 5 -4 9 -10 9 -5 0 -10 -4 -10 -9z"/>
<path d="M1394 616 c-11 -28 0 -61 21 -61 16 0 20 7 20 35 0 25 -5 36 -18 38
-9 2 -20 -3 -23 -12z"/>
<path d="M1710 620 c0 -5 9 -10 20 -10 11 0 20 5 20 10 0 6 -9 10 -20 10 -11
0 -20 -4 -20 -10z"/>
<path d="M2235 620 c-4 -6 5 -10 20 -10 15 0 24 4 20 10 -3 6 -12 10 -20 10
-8 0 -17 -4 -20 -10z"/>
</g>
</svg>
